<!DOCTYPE svg PUBLIC "-//W3C//DTD SVG 1.1//EN" "http://www.w3.org/Graphics/SVG/1.1/DTD/svg11.dtd">
<!-- Uploaded to: SVG Repo, www.svgrepo.com, Transformed by: SVG Repo Mixer Tools -->
<svg fill="#7ed0ec " height="800px" width="800px" version="1.1" id="Layer_1" xmlns="http://www.w3.org/2000/svg" xmlns:xlink="http://www.w3.org/1999/xlink" viewBox="-50.81 -50.81 609.69 609.69" xml:space="preserve" stroke="#7ed0ec ">
<g id="SVGRepo_bgCarrier" stroke-width="0">
<rect x="-50.81" y="-50.81" width="609.69" height="609.69" rx="0" fill="#2c3e50" strokewidth="0"/>
</g>
<g id="SVGRepo_tracerCarrier" stroke-linecap="round" stroke-linejoin="round"/>
<g id="SVGRepo_iconCarrier"> <g> <g> <path d="M446.05,4.225c-5.5-5.5-14.4-5.6-20-0.1c-5.5,5.5-5.6,14.4-0.1,20c71.8,72.5,71.8,190.4,0,262.8c-5.5,5.5-5.4,14.4,0.1,20 c7.6,7.6,17.2,2.7,20-0.1C528.75,223.325,528.75,87.625,446.05,4.225z"/> </g> </g> <g> <g> <path d="M392.95,43.725c-5.5-5.5-14.4-5.6-20-0.1c-5.5,5.5-5.6,14.4-0.1,20c50.2,50.7,50.2,133.2,0,183.9 c-5.5,5.5-5.4,14.4,0.1,20c8.2,8.2,17.2,2.7,20-0.1C454.05,205.625,454.05,105.325,392.95,43.725z"/> </g> </g> <g> <g> <path d="M339.95,83.225c-5.5-5.5-14.4-5.6-20-0.1c-5.5,5.5-5.6,14.4-0.1,20c28.6,28.8,28.6,75.9,0,104.8c-5.5,5.5-5.4,14.4,0.1,20 c6.4,6.4,17.2,2.7,20-0.1C379.45,187.925,379.45,123.025,339.95,83.225z"/> </g> </g> <g> <g> <path d="M82.05,24.125c5.5-5.5,5.4-14.5-0.1-20s-14.5-5.4-20,0.1c-82.6,83.4-82.6,219.1,0,302.6c2.8,2.8,12.4,7.6,20,0.1 c5.5-5.5,5.6-14.4,0.1-20C10.25,214.425,10.25,96.525,82.05,24.125z"/> </g> </g> <g> <g> <path d="M135.15,63.525c5.5-5.5,5.4-14.5-0.1-20s-14.5-5.4-20,0.1c-61.1,61.6-61.1,162,0,223.6c2.8,2.9,11.8,8.4,20,0.2 c5.5-5.5,5.6-14.4,0.1-20C84.95,196.725,84.95,114.225,135.15,63.525z"/> </g> </g> <g> <g> <path d="M188.35,103.025c5.5-5.5,5.4-14.5-0.1-20s-14.5-5.4-20,0.1c-39.5,39.9-39.5,104.8,0,144.7c2.8,2.8,13.5,6.5,20,0.1 c5.5-5.5,5.6-14.4,0.1-20C159.65,179.025,159.65,131.925,188.35,103.025z"/> </g> </g> <g> <g> <path d="M375.35,479.825h-29.5l-74.4-281.3c16.9-6.9,28.8-23.6,28.8-43.1c0-25.6-20.7-46.5-46.2-46.5s-46.2,20.9-46.2,46.5 c0,19.4,11.9,36.1,28.8,43.1l-74.4,281.3h-29.5c-7.8,0-14.1,6.3-14.1,14.1c0,7.8,6.3,14.1,14.1,14.1h242.7 c7.8,0,14.1-6.3,14.1-14.1C389.55,486.125,383.15,479.825,375.35,479.825z M236.05,155.525c0-10.1,8.1-18.3,18-18.3 c9.9,0,18,8.2,18,18.3c0,10.1-8.1,18.3-18,18.3C244.15,173.825,236.05,165.625,236.05,155.525z M191.35,479.825l62.7-236.8 l62.7,236.8H191.35z"/> </g> </g> </g>
</svg>